HIERARCHY
ROOT Hips
{
    OFFSET   0.000000   0.000000   0.000000
    CHANNELS 6 Xposition Yposition Zposition Zrotation Xrotation Yrotation
    JOINT Chest
    {
        OFFSET   0.000000   8.007230   0.000000
        CHANNELS 3 Zrotation Xrotation Yrotation
        JOINT Chest2
        {
            OFFSET   0.000000  22.077100   0.000000
            CHANNELS 3 Zrotation Xrotation Yrotation
            JOINT Neck
            {
                OFFSET   0.000000  23.254800  -0.000021
                CHANNELS 3 Zrotation Xrotation Yrotation
                JOINT Head
                {
                    OFFSET   0.000000  14.370000   1.956610
                    CHANNELS 3 Zrotation Xrotation Yrotation
                    End Site
                    {
                        OFFSET   0.000000  19.566000   0.000000
                    }
                }
            }
            JOINT LeftCollar
            {
                OFFSET   3.911900  19.017000  -0.467063
                CHANNELS 3 Zrotation Xrotation Yrotation
                JOINT LeftShoulder
                {
                    OFFSET  10.383700   0.000000   0.000000
                    CHANNELS 3 Zrotation Xrotation Yrotation
                    JOINT LeftElbow
                    {
                        OFFSET  26.662100   0.001529   0.000325
                        CHANNELS 3 Zrotation Xrotation Yrotation
                        JOINT LeftWrist
                        {
                            OFFSET  28.869000  -0.000011  -0.000096
                            CHANNELS 3 Zrotation Xrotation Yrotation
                            JOINT LeftFinger0
                            {
                                OFFSET   2.044650  -2.323460   3.252850
                                CHANNELS 3 Zrotation Xrotation Yrotation
                                JOINT LeftFinger01
                                {
                                    OFFSET   3.088130   0.000000   0.000000
                                    CHANNELS 3 Zrotation Xrotation Yrotation
                                    JOINT LeftFinger02
                                    {
                                        OFFSET   2.639460   0.000000   0.000000
                                        CHANNELS 3 Zrotation Xrotation Yrotation
                                        End Site
                                        {
                                            OFFSET   2.582190   0.000000   0.000000
                                        }
                                    }
                                }
                            }
                            JOINT LeftFinger1
                            {
                                OFFSET   8.364480   0.000000   3.252850
                                CHANNELS 3 Zrotation Xrotation Yrotation
                                JOINT LeftFinger11
                                {
                                    OFFSET   4.646930   0.000000   0.000000
                                    CHANNELS 3 Zrotation Xrotation Yrotation
                                    JOINT LeftFinger12
                                    {
                                        OFFSET   2.323460   0.000000   0.000000
                                        CHANNELS 3 Zrotation Xrotation Yrotation
                                        End Site
                                        {
                                            OFFSET   2.273050   0.000000   0.000000
                                        }
                                    }
                                }
                            }
                            JOINT LeftFinger2
                            {
                                OFFSET   8.364480   0.000016   1.078090
                                CHANNELS 3 Zrotation Xrotation Yrotation
                                JOINT LeftFinger21
                                {
                                    OFFSET   5.111620   0.000000   0.000000
                                    CHANNELS 3 Zrotation Xrotation Yrotation
                                    JOINT LeftFinger22
                                    {
                                        OFFSET   2.788160   0.000017   0.000000
                                        CHANNELS 3 Zrotation Xrotation Yrotation
                                        End Site
                                        {
                                            OFFSET   2.727660   0.000000   0.000000
                                        }
                                    }
                                }
                            }
                            JOINT LeftFinger3
                            {
                                OFFSET   7.899780   0.000015  -1.078090
                                CHANNELS 3 Zrotation Xrotation Yrotation
                                JOINT LeftFinger31
                                {
                                    OFFSET   4.646920   0.000000   0.000000
                                    CHANNELS 3 Zrotation Xrotation Yrotation
                                    JOINT LeftFinger32
                                    {
                                        OFFSET   2.323470   0.000000   0.000000
                                        CHANNELS 3 Zrotation Xrotation Yrotation
                                        End Site
                                        {
                                            OFFSET   2.273050   0.000000   0.000000
                                        }
                                    }
                                }
                            }
                            JOINT LeftFinger4
                            {
                                OFFSET   7.435090   0.000000  -3.252850
                                CHANNELS 3 Zrotation Xrotation Yrotation
                                JOINT LeftFinger41
                                {
                                    OFFSET   3.717550   0.000000   0.000000
                                    CHANNELS 3 Zrotation Xrotation Yrotation
                                    JOINT LeftFinger42
                                    {
                                        OFFSET   1.858760   0.000000   0.000000
                                        CHANNELS 3 Zrotation Xrotation Yrotation
                                        End Site
                                        {
                                            OFFSET   1.818440   0.000000   0.000000
                                        }
                                    }
                                }
                            }
                        }
                    }
                }
            }
            JOINT RightCollar
            {
                OFFSET  -3.911900  19.017000  -0.467062
                CHANNELS 3 Zrotation Xrotation Yrotation
                JOINT RightShoulder
                {
                    OFFSET -10.383700   0.000015   0.000000
                    CHANNELS 3 Zrotation Xrotation Yrotation
                    JOINT RightElbow
                    {
                        OFFSET -26.662100   0.001341   0.000385
                        CHANNELS 3 Zrotation Xrotation Yrotation
                        JOINT RightWrist
                        {
                            OFFSET -28.869000   0.000025  -0.000080
                            CHANNELS 3 Zrotation Xrotation Yrotation
                            JOINT RightFinger0
                            {
                                OFFSET  -2.044650  -2.323490   3.252850
                                CHANNELS 3 Zrotation Xrotation Yrotation
                                JOINT RightFinger01
                                {
                                    OFFSET  -3.088130   0.000000   0.000000
                                    CHANNELS 3 Zrotation Xrotation Yrotation
                                    JOINT RightFinger02
                                    {
                                        OFFSET  -2.639460   0.000000   0.000000
                                        CHANNELS 3 Zrotation Xrotation Yrotation
                                        End Site
                                        {
                                            OFFSET  -2.582190   0.000000   0.000000
                                        }
                                    }
                                }
                            }
                            JOINT RightFinger1
                            {
                                OFFSET  -8.364480   0.000000   3.252850
                                CHANNELS 3 Zrotation Xrotation Yrotation
                                JOINT RightFinger11
                                {
                                    OFFSET  -4.646930   0.000000   0.000000
                                    CHANNELS 3 Zrotation Xrotation Yrotation
                                    JOINT RightFinger12
                                    {
                                        OFFSET  -2.323470   0.000000   0.000000
                                        CHANNELS 3 Zrotation Xrotation Yrotation
                                        End Site
                                        {
                                            OFFSET  -2.273050   0.000000   0.000000
                                        }
                                    }
                                }
                            }
                            JOINT RightFinger2
                            {
                                OFFSET  -8.364480   0.000000   1.078090
                                CHANNELS 3 Zrotation Xrotation Yrotation
                                JOINT RightFinger21
                                {
                                    OFFSET  -5.111610   0.000000   0.000000
                                    CHANNELS 3 Zrotation Xrotation Yrotation
                                    JOINT RightFinger22
                                    {
                                        OFFSET  -2.788160   0.000000   0.000000
                                        CHANNELS 3 Zrotation Xrotation Yrotation
                                        End Site
                                        {
                                            OFFSET  -2.727660   0.000000   0.000000
                                        }
                                    }
                                }
                            }
                            JOINT RightFinger3
                            {
                                OFFSET  -7.899780   0.000000  -1.078090
                                CHANNELS 3 Zrotation Xrotation Yrotation
                                JOINT RightFinger31
                                {
                                    OFFSET  -4.646920   0.000000   0.000000
                                    CHANNELS 3 Zrotation Xrotation Yrotation
                                    JOINT RightFinger32
                                    {
                                        OFFSET  -2.323470   0.000000   0.000000
                                        CHANNELS 3 Zrotation Xrotation Yrotation
                                        End Site
                                        {
                                            OFFSET  -2.273050   0.000000   0.000000
                                        }
                                    }
                                }
                            }
                            JOINT RightFinger4
                            {
                                OFFSET  -7.435090   0.000000  -3.252850
                                CHANNELS 3 Zrotation Xrotation Yrotation
                                JOINT RightFinger41
                                {
                                    OFFSET  -3.717550   0.000000   0.000000
                                    CHANNELS 3 Zrotation Xrotation Yrotation
                                    JOINT RightFinger42
                                    {
                                        OFFSET  -1.858770   0.000000   0.000000
                                        CHANNELS 3 Zrotation Xrotation Yrotation
                                        End Site
                                        {
                                            OFFSET  -1.818440   0.000000   0.000000
                                        }
                                    }
                                }
                            }
                        }
                    }
                }
            }
        }
    }
    JOINT LeftHip
    {
        OFFSET   9.783010   0.000000   0.000000
        CHANNELS 3 Zrotation Xrotation Yrotation
        JOINT LeftKnee
        {
            OFFSET   0.000070 -41.789100   0.000028
            CHANNELS 3 Zrotation Xrotation Yrotation
            JOINT LeftAnkle
            {
                OFFSET   0.000087 -41.133200  -0.000100
                CHANNELS 3 Zrotation Xrotation Yrotation
                JOINT LeftToe
                {
                    OFFSET   0.000000  -6.358960  14.674500
                    CHANNELS 3 Zrotation Xrotation Yrotation
                    End Site
                    {
                        OFFSET   0.000000   0.000000   3.913200
                    }
                }
            }
        }
    }
    JOINT RightHip
    {
        OFFSET  -9.783020   0.000000   0.000000
        CHANNELS 3 Zrotation Xrotation Yrotation
        JOINT RightKnee
        {
            OFFSET   0.000044 -41.789100  -0.000870
            CHANNELS 3 Zrotation Xrotation Yrotation
            JOINT RightAnkle
            {
                OFFSET  -0.000090 -41.133200  -0.000245
                CHANNELS 3 Zrotation Xrotation Yrotation
                JOINT RightToe
                {
                    OFFSET   0.000000  -6.358960  14.674500
                    CHANNELS 3 Zrotation Xrotation Yrotation
                    End Site
                    {
                        OFFSET   0.000000   0.000000   3.913200
                    }
                }
            }
        }
    }
}
MOTION
Frames: 5
Frame Time:   0.016667
  5.539980  88.932700  -0.145563   4.952370 -22.986800   8.792280  -1.999890  11.797900   3.366970  -4.880720  23.444000   7.404090   2.102130   5.494650  -0.201382   3.543240  11.096500 -24.557200   8.445530   1.480600   5.392060 -51.085800   9.161700 -85.920900   7.526820 -23.442200 -130.604000  20.636400  38.860500   9.300270  43.819200  38.380400 -80.673600 -20.770800   0.008700   0.003312  -5.385390   0.005801  -0.012060 -42.232000  10.536500 -11.378700 -35.410100   0.008597  -0.007419 -25.168600   0.000896  -0.002710 -33.771900  -3.504300   5.220490 -51.625600   0.011082  -0.022357 -34.245000   0.013842  -0.008177 -29.831000  -4.948660   8.534860 -47.744000   0.003259  -0.022126 -31.753000   0.008468  -0.012081 -41.001800 -10.856400  12.223000 -63.244900   0.003098   0.006114 -42.121200  -0.000749   0.003936   1.536840   1.683540   2.603150  69.016900  25.112300  15.901300   1.141000 -10.634400  20.798000 -25.946800 -13.603500   2.079040 -37.127800  30.552300  61.106400  33.040400   0.001820  -0.001088  11.520200   0.002159   0.007526  34.537400   2.455460   3.560840  28.321400  -0.003806   0.001222  19.824900  -0.001598   0.007945  28.742900  -1.862070  -3.391730  42.918000   0.003246   0.002080  28.583400   0.002339  -0.001926  29.655500  -3.411910  -5.968290  44.752400   0.002720  -0.000084  29.805100   0.002025  -0.000231  43.770000  -4.765130  -4.956920  65.966900  -0.006425   0.001074  43.934000   0.000747   0.005195  -5.106710  23.180600  -0.182286  -1.857180   1.584040   8.174700  -3.917550  -3.866810   1.058230   0.000000   0.000000   0.000000  -7.254070  12.825000  -8.746000   0.438151  28.750500 -11.701800  -5.513170  -9.543890  -6.051940  -0.000000   0.000000   0.000000
  5.493380  88.921600  -0.109651   4.795010 -23.009100   8.310290  -1.982930  11.785200   3.227820  -4.812250  23.426700   7.111690   2.115740   5.399390  -0.199206   3.565010  10.903800 -25.573600   8.394720   1.525540   5.358010 -51.332100   9.312010 -85.761700   7.425670 -23.146500 -130.719000  18.945300  39.046900  10.637100  43.697500  38.015600 -80.122100 -17.782900   0.007143   0.002442  -3.891420   0.003616  -0.004742 -39.565800  10.371800 -12.316900 -33.288900   0.007585  -0.003517 -23.368400  -0.001294  -0.002799 -31.478200  -3.281850   5.179310 -48.282500   0.006213  -0.012348 -31.991000   0.006271  -0.003261 -28.486400  -4.800570   8.702880 -44.195800  -0.004461  -0.018351 -29.385900   0.002570  -0.011518 -38.594600 -10.149000  12.227600 -59.418000  -0.006191  -0.000070 -39.572500  -0.002625  -0.002858   1.556230   1.649610   2.622300  69.119100  24.984700  15.846500   1.042280 -10.418500  21.032300 -26.045700 -13.662500   2.057520 -37.067800  30.476200  60.933400  33.139400   0.001823  -0.001094  11.569700   0.002163   0.007543  34.548400   2.321640   3.366010  28.323700  -0.003794   0.001259  19.826600  -0.001631   0.007948  28.734600  -1.996360  -3.636380  42.936600   0.003233   0.002102  28.595800   0.002349  -0.001908  29.639900  -3.547230  -6.206420  44.752000   0.002642  -0.000089  29.804800   0.002018  -0.000233  43.772000  -4.956160  -5.153330  65.995200  -0.006416   0.001078  43.952800   0.000747   0.005167  -5.110220  23.200100  -0.178626  -1.876630   1.626250   8.295400  -3.895510  -3.971160   1.374690  -0.000000   0.000000  -0.000000  -7.207460  12.672500  -8.775700   0.297622  28.890300 -11.407600  -5.571910  -9.628840  -5.888600   0.000000   0.000000   0.000000
  5.441770  88.912300  -0.070856   4.632700 -23.027400   7.828750  -1.962400  11.769400   3.093020  -4.740510  23.402800   6.827640   2.136850   5.305750  -0.197581   3.595620  10.713900 -26.469100   8.328090   1.576470   5.333320 -51.628400   9.488260 -85.549900   7.318370 -22.786300 -130.847000  17.380500  39.201900  11.872400  43.699600  37.590000 -79.315700 -16.001100   0.005586   0.001677  -3.000540   0.002682   0.000761 -37.372600  10.221400 -13.116700 -31.544000   0.006162   0.000384 -22.031900  -0.001992  -0.002812 -30.164200  -2.934870   5.011190 -45.433300  -0.002141   0.002809 -30.258500  -0.002232   0.003030 -28.181900  -4.729180   8.742040 -41.097800  -0.011068  -0.009781 -27.371200  -0.003342  -0.008822 -36.904700  -9.384890  12.203800 -56.861600  -0.011846  -0.006254 -37.869900  -0.003769  -0.008050   1.574130   1.622480   2.649820  69.252600  24.840700  15.767600   0.963896 -10.214000  21.138100 -26.099500 -13.778300   1.992980 -36.957300  30.334300  60.703400  33.237900   0.001828  -0.001104  11.618900   0.002168   0.007559  34.559200   2.181710   3.162420  28.326300  -0.003781   0.001296  19.828400  -0.001665   0.007952  28.725000  -2.136370  -3.891730  42.939500   0.003219   0.002124  28.597700   0.002363  -0.001891  29.620600  -3.687450  -6.454020  44.751000   0.002565  -0.000093  29.804100   0.002010  -0.000234  43.768300  -5.154160  -5.357840  66.017200  -0.006405   0.001081  43.967500   0.000747   0.005142  -5.116770  23.213100  -0.167303  -1.889240   1.668070   8.410670  -3.875560  -4.075310   1.681370   0.000000   0.000000  -0.000000  -7.148510  12.525000  -8.805600   0.154375  29.006900 -11.112400  -5.629980  -9.706290  -5.727620  -0.000000   0.000000  -0.000000
  5.387190  88.906100  -0.026410   4.452690 -23.046200   7.329150  -1.934240  11.753300   2.970080  -4.655660  23.378200   6.566460   2.151970   5.214710  -0.195517   3.617040  10.529200 -27.223800   8.254040   1.640550   5.282120 -51.964600   9.674530 -85.262700   7.220190 -22.366200 -130.966000  16.700000  39.369300  12.360900  44.073200  36.907300 -78.200800 -16.038600   0.018498   0.005228  -3.019280   0.009216   0.000897 -35.799600  10.026600 -13.583100 -30.271600   0.000641   0.000192 -21.146500  -0.001901  -0.002678 -29.786600  -2.585650   4.544030 -44.549600  -0.011209   0.013390 -29.729500  -0.010031   0.005377 -28.214500  -4.732810   8.762170 -39.607000  -0.012897   0.005623 -26.381100  -0.009273  -0.000853 -36.382400  -8.666430  11.765600 -56.011200  -0.016424  -0.003070 -37.303500  -0.009159  -0.008942   1.586620   1.600240   2.663970  69.398700  24.709300  15.690900   0.905409 -10.043600  21.118000 -26.077300 -14.013700   1.874780 -36.864100  30.189900  60.492200  33.319100   0.001840  -0.001121  11.659500   0.002179   0.007591  34.577700   2.047380   2.966200  28.335600  -0.003763   0.001339  19.834900  -0.001699   0.007956  28.715600  -2.270600  -4.136640  42.939300   0.003200   0.002141  28.597600   0.002368  -0.001878  29.605100  -3.819970  -6.687420  44.750000   0.002492  -0.000091  29.803400   0.001999  -0.000229  43.768700  -5.341120  -5.550480  66.039500  -0.006397   0.001080  43.982400   0.000748   0.005110  -5.111370  23.235500  -0.115063  -1.897470   1.704950   8.516400  -3.860720  -4.178330   1.968240  -0.000000   0.000000  -0.000000  -7.076820  12.396200  -8.800550   0.025975  29.092000 -10.834800  -5.687240  -9.765830  -5.567360   0.000000   0.000000   0.000000
  5.328230  88.901100   0.022832   4.267760 -23.063300   6.832090  -1.905390  11.738400   2.857010  -4.568350  23.355300   6.325280   2.159650   5.129770  -0.193110   3.627960  10.357300 -27.828100   8.175940   1.705420   5.214960 -52.294800   9.837060 -84.969400   7.124400 -21.962500 -131.070000  16.511300  39.548200  12.468900  44.550300  36.347300 -77.155300 -16.300800   0.036003   0.010504  -3.150420   0.018085   0.000939 -35.115800   9.910470 -13.752900 -29.711500  -0.003383   0.000000 -20.806400  -0.001810  -0.001743 -29.756000  -2.377010   4.204100 -44.423300  -0.016792   0.018823 -29.653900  -0.015646   0.005957 -28.256400  -4.758670   8.779270 -39.186000  -0.016048   0.016233 -26.097900  -0.014654   0.004982 -36.455900  -8.279070  11.096600 -55.889700  -0.023110   0.000114 -37.222600  -0.013016  -0.009834   1.605300   1.578870   2.669790  69.546900  24.593200  15.618100   0.879909  -9.903100  21.050800 -25.991800 -14.322700   1.723450 -36.782400  30.063000  60.318800  33.388400   0.001853  -0.001133  11.694200   0.002192   0.007626  34.596600   1.929910   2.794460  28.346200  -0.003745   0.001382  19.842300  -0.001733   0.007959  28.706900  -2.388070  -4.351100  42.938200   0.003182   0.002158  28.596900   0.002374  -0.001864  29.591400  -3.932770  -6.886350  44.747700   0.002420  -0.000088  29.801900   0.001987  -0.000223  43.757700  -5.499720  -5.715320  66.051300  -0.006387   0.001080  43.990200   0.000749   0.005075  -5.090020  23.257900  -0.048638  -1.905850   1.743420   8.621570  -3.849540  -4.279920   2.240910  -0.000000   0.000000   0.000000  -6.997730  12.281000  -8.796010  -0.095868  29.159100 -10.570200  -5.743080  -9.823580  -5.406240   0.000000   0.000000  -0.000000
